# xmcd CD database file
#
# Track frame offsets:
#	150
#	21358
#	57340
#	91593
#	109768
#	136846
#	163555
#	189996
#	201948
#	222481
#	247758
#	268008
#
# Disc length: 3912 seconds
#
# Revision: 0
# Processed by: cddbd v1.5.2PL0 Copyright (c) Steve Scherf et al.
# Submitted via: CDex 1.70beta2
#
DISCID=a10f460c
DTITLE=Various Artist - Good And Plenty
DYEAR=2008
DGENRE=Jazz
TTITLE0=Avant de Mourir - Houston Person
TTITLE1=Equinox - For John Coltrane - Houston Person
TTITLE2=I Remember Clifford - Houston Person
TTITLE3=If I Could Be With You (One Hour Tonight) - Helen Humes
TTITLE4=I'll Be Around - Houston Person
TTITLE5=Juicy Lucy - Houston Person
TTITLE6=Let It Be Me - Houston Person
TTITLE7=May The Good Lord Bless And Keep You - Houston Person
TTITLE8=Million Dollar Secret - Helen Humes
TTITLE9=Prisoner Of Love - Helen Humes
TTITLE10=Wonderland - Houston Person
TTITLE11=There Is A Balm In Gilead - Houston Person and Rhoda Scott
EXTD=YEAR: 2008
EXTT0=
EXTT1=
EXTT2=
EXTT3=
EXTT4=
EXTT5=
EXTT6=
EXTT7=
EXTT8=
EXTT9=
EXTT10=
EXTT11=
PLAYORDER=
